<?xml version="1.0" encoding="utf-8"?>
<!-- Generator: Adobe Illustrator 26.0.1, SVG Export Plug-In . SVG Version: 6.00 Build 0)  -->
<svg version="1.1" id="Layer_1" xmlns="http://www.w3.org/2000/svg" xmlns:xlink="http://www.w3.org/1999/xlink" x="0px" y="0px"
	 viewBox="0 0 167 50" style="enable-background:new 0 0 167 50;" xml:space="preserve">
<style type="text/css">
	.st0{fill:#0A1A1A;}
</style>
<g>
	<g>
		<path class="st0" d="M156,45.6l0-31.7c0-1.1,0.3-1.9,0.9-2.5c0.6-0.6,1.4-0.9,2.3-0.9s1.8,0.3,2.3,0.9c0.6,0.6,0.9,1.4,0.9,2.5
			v31.7h3.9V14c0-2.2-0.7-3.9-2-5.2c-1.3-1.3-3-1.9-5.2-1.9c-2.1,0-3.9,0.6-5.2,1.9c-1.3,1.3-2,3-2,5.2v31.7H156z"/>
		<path class="st0" d="M76.2,38.6c0,2.2-0.7,3.9-2,5.2c-1.3,1.3-3,1.9-5.2,1.9c-2.2,0-3.9-0.6-5.2-1.9c-1.3-1.3-2-3-2-5.2V27.3h3.9
			v11.3c0,1.1,0.3,1.9,0.9,2.5C67.3,41.7,68,42,69,42s1.8-0.3,2.3-0.9s0.9-1.4,0.9-2.5l0-11.6c0-10.5-6.4-8.6-6.4-17.7
			c0-0.5,0-1.3,0-1.8h3.9c0,0.9,0,1.1,0,1.8c0,6.7,6.4,6.2,6.4,17.6V38.6L76.2,38.6z"/>
		<path class="st0" d="M129.8,26.8v11.7c0,2.2-0.7,3.9-2,5.2c-1.3,1.3-3,1.9-5.2,1.9c-2.1,0-3.9-0.6-5.2-1.9c-1.3-1.3-2-3-2-5.2
			V27.3h3.9v11.3c0,1.1,0.3,1.9,0.9,2.5s1.4,0.9,2.3,0.9s1.8-0.3,2.3-0.9s0.9-1.4,0.9-2.5V27c0-10.5-6.4-8.6-6.4-17.7
			c0-0.5,0-1.3,0-1.8h3.9c0,0.9,0,1.1,0,1.8C123.4,15.9,129.8,15.4,129.8,26.8L129.8,26.8z"/>
		<path class="st0" d="M94.4,30.9V14c0-2.2-0.7-3.9-2-5.2c-1.3-1.3-3-1.9-5.2-1.9s-3.9,0.6-5.2,1.9c-1.3,1.3-2,3-2,5.2v16.2
			c0,3.4,0.2,5.5,3.6,8.6c1.5,1.4,3.6,2.9,3.6,6.9h3.9c0-0.5,0.3-5.9-4.5-9.3C85,35.1,84,33.7,84,30.1l0-16.1c0-1.1,0.3-1.9,0.9-2.5
			c0.6-0.6,1.4-0.9,2.3-0.9s1.8,0.3,2.3,0.9s0.9,1.4,0.9,2.5v16.9L94.4,30.9L94.4,30.9z"/>
		<path class="st0" d="M110.8,8.8c-1.3-1.3-3-1.9-5.2-1.9c-2.1,0-3.9,0.6-5.2,1.9c-1.3,1.3-2,3-2,5.2v16.2c0,3.4,0.2,5.4,3.6,8.5
			c1.5,1.4,3.6,2.9,3.6,6.9h3.9c0-0.5,0.3-5.9-4.5-9.3c-1.7-1.2-2.7-2.2-2.8-5.5h3.3c2.1,0,3.8-0.6,5.2-1.9c1.3-1.3,2-3,2-5.2V14
			C112.7,11.8,112.1,10.1,110.8,8.8L110.8,8.8z M107.9,26c-0.6,0.6-1.4,0.9-2.3,0.9h-3.2V14c0-1.1,0.3-1.9,0.9-2.5
			c0.6-0.6,1.4-0.9,2.3-0.9s1.8,0.3,2.3,0.9s0.9,1.4,0.9,2.5v9.5C108.8,24.5,108.5,25.4,107.9,26L107.9,26z"/>
		<path class="st0" d="M144.3,21c0,0,2.8-1.7,2.8-6.9s-2.5-7.2-6.5-7.2c-3.2,0-6.3,2.1-6.3,6.1v3.5h3.9c0-1.4,0-1.3,0-2.4
			c0-0.5-0.2-3.5,2.4-3.5c2.7,0,2.5,3,2.5,3.5c0,2-0.1,3.9-2.8,5.5c-2.7,1.6-6.6,2.3-6.6,8.7v9.7c0,3.3,1.4,7.7,6.9,7.7
			c4.1,0,7.4-2.2,7.4-7.2V28.1C148.1,26.3,147.7,22.6,144.3,21L144.3,21z M144.1,38.6c0,1.1-0.3,1.9-0.9,2.5
			c-0.6,0.6-1.4,0.9-2.3,0.9s-1.8-0.3-2.3-0.9c-0.6-0.6-0.9-1.4-0.9-2.5V27.1c0-1.1,0.3-1.9,0.9-2.5c0.6-0.6,1.4-0.9,2.3-0.9
			s1.8,0.3,2.3,0.9c0.6,0.6,0.9,1.4,0.9,2.5V38.6z"/>
	</g>
	<g>
		<path class="st0" d="M0,30.7h49.5v2.2H0V30.7z M0,36.8h49.5v1.7H0V36.8z"/>
		<path class="st0" d="M24.8,0.2L24.8,0.2c-5.4,0-10.4,1.7-14.5,4.7h29C35.2,2,30.2,0.2,24.8,0.2z"/>
		<path class="st0" d="M41,6.3H8.5C7.1,7.6,5.8,9,4.7,10.5h40.2C43.7,9,42.4,7.6,41,6.3L41,6.3z"/>
		<path class="st0" d="M46.1,12.4H3.4c-0.7,1.2-1.3,2.4-1.8,3.7h46.2C47.4,14.8,46.8,13.6,46.1,12.4L46.1,12.4z"/>
		<path class="st0" d="M48.7,18.5H0.9c-0.3,1-0.5,2.1-0.6,3.2h49.1C49.2,20.6,48.9,19.6,48.7,18.5z"/>
		<rect y="24.6" class="st0" width="49.5" height="2.7"/>
		<rect y="30.7" class="st0" width="49.5" height="2.2"/>
		<rect y="36.8" class="st0" width="49.5" height="1.7"/>
		<rect y="42.9" class="st0" width="49.5" height="1.2"/>
		<rect y="49" class="st0" width="49.5" height="0.7"/>
	</g>
</g>
</svg>
