<?xml version="1.0" encoding="UTF-8"?>
<svg xmlns="http://www.w3.org/2000/svg" version="1.1" viewBox="0 0 240 43.636">
  <!-- Generator: Adobe Illustrator 28.7.1, SVG Export Plug-In . SVG Version: 1.2.0 Build 142)  -->
  <g>
    <g id="Layer_1">
      <g>
        <path d="M132.435,32.185l-17.347-.003v3.454c0,3.29,2.663,5.956,5.953,5.957h4.945c5.897,0,10.695-4.798,10.695-10.692v-.501c-1.065,1.091-2.559,1.785-4.246,1.785h0Z" fill="#ed1c24"/>
        <path d="M130.865,12.144c-.865-.499-2.629-1.517-4.118-2.377.342.872.524,1.806.524,2.767v17.939h5.164c1.15,0,2.22-.451,3.024-1.27.675-.696,1.104-1.612,1.199-2.562.01-.136.024-.274.024-.415v-4.008c0-4.083-2.283-8.035-5.816-10.074h0Z" fill="#f15a29"/>
        <path d="M125.563,12.517c0-2.17-1.165-4.06-2.9-5.107-3.347-1.936-9.287-5.366-9.287-5.366-4.704,8.148,2.786,12.473,2.786,12.473l9.401,5.427v-7.428h0Z" fill="#f7941d"/>
        <path d="M105.235,25.632c1.959-1.131,12.582-7.264,13.377-7.723l-3.305-1.909c-.091-.052-2.268-1.327-3.762-3.768-.158-.264-.314-.545-.457-.843-.47.274-.955.552-1.303.752-3.533,2.039-5.82,5.991-5.82,10.074v4.39c.371-.371.794-.699,1.269-.975h0Z" fill="#662d91"/>
        <path d="M113.376,35.637v-12.728s-5.464,3.151-7.285,4.202c-1.331.771-2.125,2.149-2.125,3.692v.096c0,5.896,4.798,10.692,10.695,10.692h1.574c-1.741-1.405-2.858-3.55-2.858-5.954h0Z" fill="#92278f"/>
        <path d="M63.981,20.049v3.503c0,.434-.242.701-.677.701h-4.689c-.434,0-.677-.267-.677-.701v-3.501c-1.146.352-1.149.539-1.149,1.752v8.952c0,2.064.467,2.05,2.381,2.05h3.628c2.015,0,2.253-.136,2.253-2.164v-8.837c0-1.043.026-1.429-1.07-1.754h0ZM63.981,14.41c3.546.218,6.727.957,7.623,4.856.48,2.752.188,9.423.255,12.452-.328,5.976-2.004,7.048-8.43,7.048h-5.279c-6.245,0-7.707-1.312-8.135-6.593-.251-3.096-.375-10.384.138-13.298.653-3.712,4.237-4.247,7.676-4.458l.031-2.48c.003-.437.369-.691.811-.691h4.481c.442,0,.808.261.811.691l.018,2.474h0Z" fill="#662d91" fill-rule="evenodd"/>
        <path d="M37.847,18.155c-1.103-.092-2.317-.078-3.396-.078-1.881,0-1.804,1.389-1.798,2.272v8.286c-.01.895.027,2.01.754,2.646,1.641,1.436,8.034.73,10.159.404.647-.099,1.497-.207,1.497.636v5.209c0,.717-.458,1.208-1.088,1.235h-9.573c-5.186,0-9.383-1.603-9.383-7.797v-12.163c0-6.206,4.802-7.56,10.127-7.561,4.08,0,8.073.756,9.441,1.646.32.208.497.588.497,1.269v11.396c0,.453-.364.814-.817.811l-5.615-.039c-.444-.003-.805-.366-.805-.811v-7.361h0Z" fill="#662d91" fill-rule="evenodd"/>
        <path d="M11.581,32.601c1.077-.083,1.552-.443,1.567-1.601.026-1.948.05-5.445.054-7.393,0-.384.01-.795-.064-1.18-.415-2.685-10.017-2.026-10.076-10.342-.003-.467.354-.841.813-.84l5.436.012c.442,0,.801.37.809.815.042,2.396,6.645,3.926,8.338,5.293,1.747,1.411,1.85,3.262,1.85,5.408l-.073,9.757c-.162,5.444-1.97,6.065-7.011,6.236h-6.468c-2.637.025-6.983-.682-6.747-4.307v-8.902c0-.454.362-.829.807-.829h5.233c.441,0,.795.384.795.828v5.312c0,1.698,1.164,1.749,2.458,1.759.727.005,1.567.029,2.279-.025h0Z" fill="#662d91" fill-rule="evenodd"/>
        <path d="M87.692,32.63c1.206-.076,2.056-.014,2.077-1.63.026-1.948.05-5.445.054-7.393,0-.384.01-.795-.064-1.18-.415-2.685-10.017-2.026-10.076-10.342-.003-.467.354-.841.813-.84l5.436.012c.442,0,.801.37.809.815.042,2.396,6.645,3.926,8.338,5.293,1.747,1.411,1.85,3.262,1.85,5.408l-.073,9.757c-.162,5.444-1.97,6.065-7.011,6.236h-6.468c-2.637.025-6.983-.682-6.747-4.307v-8.902c0-.454.362-.829.807-.829h5.233c.441,0,.795.384.795.828v5.312c0,1.698,1.164,1.749,2.458,1.759.095,0,1.675,0,1.769.004h0Z" fill="#662d91" fill-rule="evenodd"/>
        <path d="M156.385,23.637l-.981-4.09h-.235l-1.838,7.391h3.875l-.822-3.301h0ZM184.453,31.742h5.891c.208,0,.379.051.506.157.133.105.196.277.196.512v4.798c0,.237-.063.441-.196.613-.127.172-.373.254-.741.254h-11.405c-4.193,0-6.003-3.722-6.003-8.435V12.852c0-.266.062-.488.188-.67.134-.184.381-.277.748-.277h5.788c.369,0,.615.086.747.258.127.169.197.398.197.689v14.24c0,3.823.785,4.65,4.085,4.65h0ZM213.203,17.985c-.127.171-.375.258-.741.258h-5.402v18.889c0,.158-.038.356-.126.591-.102.236-.355.353-.772.353h-5.821c-.367,0-.614-.089-.747-.273-.134-.184-.198-.407-.198-.672v-18.889h-5.358c-.417,0-.677-.086-.785-.258-.102-.169-.159-.374-.159-.609v-4.524c0-.291.057-.521.159-.689.108-.171.368-.258.785-.258h18.423c.286,0,.513.086.684.258.171.169.253.398.253.689v4.524c0,.235-.064.44-.196.609h0ZM228.353,23.637l-.975-4.09h-.234l-1.843,7.391h3.876l-.824-3.301h0ZM222.679,36.761c-.126.499-.323.839-.582,1.024-.266.183-.615.272-1.059.272h-5.402c-.367,0-.608-.063-.722-.197-.12-.129-.101-.457.058-.979l7.276-23.621c.133-.444.317-.784.551-1.02.234-.234.69-.354,1.368-.354h6.144c.677,0,1.12.119,1.336.354.202.236.387.588.544,1.062l7.708,23.657c.235.733.063,1.099-.507,1.099h-5.99c-.52,0-.886-.123-1.096-.372-.209-.25-.373-.636-.507-1.16l-1.057-3.851h-6.966l-1.096,4.087h0ZM150.71,36.761c-.132.499-.329.839-.589,1.024-.259.183-.614.272-1.058.272h-5.395c-.367,0-.608-.063-.728-.197-.113-.129-.096-.457.064-.979l7.275-23.621c.128-.444.311-.784.544-1.02.235-.234.698-.354,1.375-.354h6.144c.677,0,1.12.119,1.329.354.21.236.393.588.546,1.062l7.715,23.657c.233.733.061,1.099-.514,1.099h-5.985c-.52,0-.886-.123-1.095-.372-.209-.25-.381-.636-.507-1.16l-1.058-3.851h-6.966l-1.095,4.087h0Z" fill="#662d91"/>
      </g>
    </g>
  </g>
</svg>